<svg xmlns="http://www.w3.org/2000/svg" width="400" height="400" viewBox="0 0 400 400"><defs><linearGradient id="rimH" x1="0" y1="0" x2="1" y2="0"><stop offset="0" stop-color="#FF4FD8"/><stop offset="0.5" stop-color="#B14DFF"/><stop offset="1" stop-color="#4F7BFF"/></linearGradient></defs><g id="topleft" transform="translate(0,0)"><rect x="0" y="0" width="10" height="10" fill="#000000" fill-opacity="0"/><path d="M 10,10 H 0 A 10,10 0 0 1 10,0 Z" fill="#171423" fill-opacity="0.85"/><path d="M 0.5,10 A 9.5,9.5 0 0 1 10,0.5" fill="none" stroke="#FFFFFF" stroke-opacity="0.12" stroke-width="1"/></g><g id="top" transform="translate(10,0)"><rect x="0" y="0" width="20" height="10" fill="#000000" fill-opacity="0"/><rect x="0" y="0" width="20" height="10" fill="#171423" fill-opacity="0.85" shape-rendering="crispEdges"/><rect x="0" y="0" width="20" height="1" fill="#FFFFFF" fill-opacity="0.12" shape-rendering="crispEdges"/></g><g id="topright" transform="translate(30,0)"><rect x="0" y="0" width="10" height="10" fill="#000000" fill-opacity="0"/><path d="M 0,10 V 0 A 10,10 0 0 1 10,10 Z" fill="#171423" fill-opacity="0.85"/><path d="M 0,0.5 A 9.5,9.5 0 0 1 9.5,10" fill="none" stroke="#FFFFFF" stroke-opacity="0.12" stroke-width="1"/></g><g id="left" transform="translate(0,10)"><rect x="0" y="0" width="10" height="20" fill="#000000" fill-opacity="0"/><rect x="0" y="0" width="10" height="20" fill="#171423" fill-opacity="0.85" shape-rendering="crispEdges"/><rect x="0" y="0" width="1" height="20" fill="#FFFFFF" fill-opacity="0.12" shape-rendering="crispEdges"/></g><g id="center" transform="translate(10,10)"><rect x="0" y="0" width="20" height="20" fill="#000000" fill-opacity="0"/><rect x="0" y="0" width="10" height="20" fill="#171423" fill-opacity="0.85" shape-rendering="crispEdges"/></g><g id="right" transform="translate(30,10)"><rect x="0" y="0" width="10" height="20" fill="#000000" fill-opacity="0"/><rect x="0" y="0" width="10" height="20" fill="#171423" fill-opacity="0.85" shape-rendering="crispEdges"/><rect x="9" y="0" width="1" height="20" fill="#FFFFFF" fill-opacity="0.12" shape-rendering="crispEdges"/></g><g id="bottomleft" transform="translate(0,30)"><rect x="0" y="0" width="10" height="10" fill="#000000" fill-opacity="0"/><path d="M 10,0 V 10 A 10,10 0 0 1 0,0 Z" fill="#171423" fill-opacity="0.85"/><path d="M 0.5,0 A 9.5,9.5 0 0 0 10,9.5" fill="none" stroke="#FFFFFF" stroke-opacity="0.12" stroke-width="1"/></g><g id="bottom" transform="translate(10,30)"><rect x="0" y="0" width="20" height="10" fill="#000000" fill-opacity="0"/><rect x="0" y="0" width="20" height="10" fill="#171423" fill-opacity="0.85" shape-rendering="crispEdges"/><rect x="0" y="9" width="20" height="1" fill="#FFFFFF" fill-opacity="0.12" shape-rendering="crispEdges"/></g><g id="bottomright" transform="translate(30,30)"><rect x="0" y="0" width="10" height="10" fill="#000000" fill-opacity="0"/><path d="M 0,0 H 10 A 10,10 0 0 1 0,10 Z" fill="#171423" fill-opacity="0.85"/><path d="M 0,9.5 A 9.5,9.5 0 0 0 9.5,0" fill="none" stroke="#FFFFFF" stroke-opacity="0.12" stroke-width="1"/></g><g id="mask-topleft" transform="translate(60,0)"><rect x="0" y="0" width="10" height="10" fill="#000000" fill-opacity="0"/><path d="M 10,10 H 0 A 10,10 0 0 1 10,0 Z" fill="#000000" fill-opacity="1"/></g><g id="mask-top" transform="translate(70,0)"><rect x="0" y="0" width="20" height="10" fill="#000000" fill-opacity="0"/><rect x="0" y="0" width="20" height="10" fill="#000000" fill-opacity="1" shape-rendering="crispEdges"/></g><g id="mask-topright" transform="translate(90,0)"><rect x="0" y="0" width="10" height="10" fill="#000000" fill-opacity="0"/><path d="M 0,10 V 0 A 10,10 0 0 1 10,10 Z" fill="#000000" fill-opacity="1"/></g><g id="mask-left" transform="translate(60,10)"><rect x="0" y="0" width="10" height="20" fill="#000000" fill-opacity="0"/><rect x="0" y="0" width="10" height="20" fill="#000000" fill-opacity="1" shape-rendering="crispEdges"/></g><g id="mask-center" transform="translate(70,10)"><rect x="0" y="0" width="20" height="20" fill="#000000" fill-opacity="0"/><rect x="0" y="0" width="10" height="20" fill="#000000" fill-opacity="1" shape-rendering="crispEdges"/></g><g id="mask-right" transform="translate(90,10)"><rect x="0" y="0" width="10" height="20" fill="#000000" fill-opacity="0"/><rect x="0" y="0" width="10" height="20" fill="#000000" fill-opacity="1" shape-rendering="crispEdges"/></g><g id="mask-bottomleft" transform="translate(60,30)"><rect x="0" y="0" width="10" height="10" fill="#000000" fill-opacity="0"/><path d="M 10,0 V 10 A 10,10 0 0 1 0,0 Z" fill="#000000" fill-opacity="1"/></g><g id="mask-bottom" transform="translate(70,30)"><rect x="0" y="0" width="20" height="10" fill="#000000" fill-opacity="0"/><rect x="0" y="0" width="20" height="10" fill="#000000" fill-opacity="1" shape-rendering="crispEdges"/></g><g id="mask-bottomright" transform="translate(90,30)"><rect x="0" y="0" width="10" height="10" fill="#000000" fill-opacity="0"/><path d="M 0,0 H 10 A 10,10 0 0 1 0,10 Z" fill="#000000" fill-opacity="1"/></g><rect id="hint-top-margin" width="4" height="4" x="0" y="60" fill="#ff00ff"/><rect id="hint-bottom-margin" width="4" height="4" x="12" y="60" fill="#ff00ff"/><rect id="hint-left-margin" width="8" height="4" x="24" y="60" fill="#ff00ff"/><rect id="hint-right-margin" width="8" height="4" x="40" y="60" fill="#ff00ff"/><rect id="hint-stretch-borders" x="300" y="0" width="4" height="4" fill="#ff00ff"/></svg>