<svg xmlns="http://www.w3.org/2000/svg" width="300" height="400" viewBox="0 0 300 400"><rect id="hint-stretch-borders" x="200" y="0" width="4" height="4" fill="#ff00ff"/><g id="normal-topleft" transform="translate(0,0)"><rect x="0" y="0" width="10" height="10" fill="#000000" fill-opacity="0"/></g><g id="normal-top" transform="translate(10,0)"><rect x="0" y="0" width="20" height="10" fill="#000000" fill-opacity="0"/></g><g id="normal-topright" transform="translate(30,0)"><rect x="0" y="0" width="10" height="10" fill="#000000" fill-opacity="0"/></g><g id="normal-left" transform="translate(0,10)"><rect x="0" y="0" width="10" height="20" fill="#000000" fill-opacity="0"/></g><g id="normal-center" transform="translate(10,10)"><rect x="0" y="0" width="20" height="20" fill="#000000" fill-opacity="0"/></g><g id="normal-right" transform="translate(30,10)"><rect x="0" y="0" width="10" height="20" fill="#000000" fill-opacity="0"/></g><g id="normal-bottomleft" transform="translate(0,30)"><rect x="0" y="0" width="10" height="10" fill="#000000" fill-opacity="0"/></g><g id="normal-bottom" transform="translate(10,30)"><rect x="0" y="0" width="20" height="10" fill="#000000" fill-opacity="0"/><rect x="0" y="3" width="20" height="6" fill="#FF4FD8" fill-opacity="0.24" rx="3"/><rect x="0" y="6" width="20" height="2" fill="#FF4FD8" fill-opacity="0.95" rx="1"/></g><g id="normal-bottomright" transform="translate(30,30)"><rect x="0" y="0" width="10" height="10" fill="#000000" fill-opacity="0"/></g><g id="focus-topleft" transform="translate(0,60)"><rect x="0" y="0" width="10" height="10" fill="#000000" fill-opacity="0"/><path d="M 10,10 H 0 A 10,10 0 0 1 10,0 Z" fill="#B14DFF" fill-opacity="0.2"/></g><g id="focus-top" transform="translate(10,60)"><rect x="0" y="0" width="20" height="10" fill="#000000" fill-opacity="0"/><rect x="0" y="0" width="20" height="10" fill="#B14DFF" fill-opacity="0.2"/></g><g id="focus-topright" transform="translate(30,60)"><rect x="0" y="0" width="10" height="10" fill="#000000" fill-opacity="0"/><path d="M 0,10 V 0 A 10,10 0 0 1 10,10 Z" fill="#B14DFF" fill-opacity="0.2"/></g><g id="focus-left" transform="translate(0,70)"><rect x="0" y="0" width="10" height="20" fill="#000000" fill-opacity="0"/><rect x="0" y="0" width="10" height="20" fill="#B14DFF" fill-opacity="0.2"/></g><g id="focus-center" transform="translate(10,70)"><rect x="0" y="0" width="20" height="20" fill="#000000" fill-opacity="0"/><rect x="0" y="0" width="20" height="20" fill="#B14DFF" fill-opacity="0.2"/></g><g id="focus-right" transform="translate(30,70)"><rect x="0" y="0" width="10" height="20" fill="#000000" fill-opacity="0"/><rect x="0" y="0" width="10" height="20" fill="#B14DFF" fill-opacity="0.2"/></g><g id="focus-bottomleft" transform="translate(0,90)"><rect x="0" y="0" width="10" height="10" fill="#000000" fill-opacity="0"/><path d="M 10,0 V 10 A 10,10 0 0 1 0,0 Z" fill="#B14DFF" fill-opacity="0.2"/></g><g id="focus-bottom" transform="translate(10,90)"><rect x="0" y="0" width="20" height="10" fill="#000000" fill-opacity="0"/><rect x="0" y="0" width="20" height="10" fill="#B14DFF" fill-opacity="0.2"/><rect x="0" y="3" width="20" height="6" fill="#FF4FD8" fill-opacity="0.25" rx="3"/><rect x="0" y="6" width="20" height="2" fill="#FF4FD8" fill-opacity="1" rx="1"/></g><g id="focus-bottomright" transform="translate(30,90)"><rect x="0" y="0" width="10" height="10" fill="#000000" fill-opacity="0"/><path d="M 0,0 H 10 A 10,10 0 0 1 0,10 Z" fill="#B14DFF" fill-opacity="0.2"/></g><g id="hover-topleft" transform="translate(0,120)"><rect x="0" y="0" width="10" height="10" fill="#000000" fill-opacity="0"/><path d="M 10,10 H 0 A 10,10 0 0 1 10,0 Z" fill="#B14DFF" fill-opacity="0.1"/></g><g id="hover-top" transform="translate(10,120)"><rect x="0" y="0" width="20" height="10" fill="#000000" fill-opacity="0"/><rect x="0" y="0" width="20" height="10" fill="#B14DFF" fill-opacity="0.1"/></g><g id="hover-topright" transform="translate(30,120)"><rect x="0" y="0" width="10" height="10" fill="#000000" fill-opacity="0"/><path d="M 0,10 V 0 A 10,10 0 0 1 10,10 Z" fill="#B14DFF" fill-opacity="0.1"/></g><g id="hover-left" transform="translate(0,130)"><rect x="0" y="0" width="10" height="20" fill="#000000" fill-opacity="0"/><rect x="0" y="0" width="10" height="20" fill="#B14DFF" fill-opacity="0.1"/></g><g id="hover-center" transform="translate(10,130)"><rect x="0" y="0" width="20" height="20" fill="#000000" fill-opacity="0"/><rect x="0" y="0" width="20" height="20" fill="#B14DFF" fill-opacity="0.1"/></g><g id="hover-right" transform="translate(30,130)"><rect x="0" y="0" width="10" height="20" fill="#000000" fill-opacity="0"/><rect x="0" y="0" width="10" height="20" fill="#B14DFF" fill-opacity="0.1"/></g><g id="hover-bottomleft" transform="translate(0,150)"><rect x="0" y="0" width="10" height="10" fill="#000000" fill-opacity="0"/><path d="M 10,0 V 10 A 10,10 0 0 1 0,0 Z" fill="#B14DFF" fill-opacity="0.1"/></g><g id="hover-bottom" transform="translate(10,150)"><rect x="0" y="0" width="20" height="10" fill="#000000" fill-opacity="0"/><rect x="0" y="0" width="20" height="10" fill="#B14DFF" fill-opacity="0.1"/></g><g id="hover-bottomright" transform="translate(30,150)"><rect x="0" y="0" width="10" height="10" fill="#000000" fill-opacity="0"/><path d="M 0,0 H 10 A 10,10 0 0 1 0,10 Z" fill="#B14DFF" fill-opacity="0.1"/></g><g id="attention-topleft" transform="translate(0,180)"><rect x="0" y="0" width="10" height="10" fill="#000000" fill-opacity="0"/><path d="M 10,10 H 0 A 10,10 0 0 1 10,0 Z" fill="#FFB84D" fill-opacity="0.22"/></g><g id="attention-top" transform="translate(10,180)"><rect x="0" y="0" width="20" height="10" fill="#000000" fill-opacity="0"/><rect x="0" y="0" width="20" height="10" fill="#FFB84D" fill-opacity="0.22"/></g><g id="attention-topright" transform="translate(30,180)"><rect x="0" y="0" width="10" height="10" fill="#000000" fill-opacity="0"/><path d="M 0,10 V 0 A 10,10 0 0 1 10,10 Z" fill="#FFB84D" fill-opacity="0.22"/></g><g id="attention-left" transform="translate(0,190)"><rect x="0" y="0" width="10" height="20" fill="#000000" fill-opacity="0"/><rect x="0" y="0" width="10" height="20" fill="#FFB84D" fill-opacity="0.22"/></g><g id="attention-center" transform="translate(10,190)"><rect x="0" y="0" width="20" height="20" fill="#000000" fill-opacity="0"/><rect x="0" y="0" width="20" height="20" fill="#FFB84D" fill-opacity="0.22"/></g><g id="attention-right" transform="translate(30,190)"><rect x="0" y="0" width="10" height="20" fill="#000000" fill-opacity="0"/><rect x="0" y="0" width="10" height="20" fill="#FFB84D" fill-opacity="0.22"/></g><g id="attention-bottomleft" transform="translate(0,210)"><rect x="0" y="0" width="10" height="10" fill="#000000" fill-opacity="0"/><path d="M 10,0 V 10 A 10,10 0 0 1 0,0 Z" fill="#FFB84D" fill-opacity="0.22"/></g><g id="attention-bottom" transform="translate(10,210)"><rect x="0" y="0" width="20" height="10" fill="#000000" fill-opacity="0"/><rect x="0" y="0" width="20" height="10" fill="#FFB84D" fill-opacity="0.22"/><rect x="0" y="3" width="20" height="6" fill="#FFB84D" fill-opacity="0.24" rx="3"/><rect x="0" y="6" width="20" height="2" fill="#FFB84D" fill-opacity="0.95" rx="1"/></g><g id="attention-bottomright" transform="translate(30,210)"><rect x="0" y="0" width="10" height="10" fill="#000000" fill-opacity="0"/><path d="M 0,0 H 10 A 10,10 0 0 1 0,10 Z" fill="#FFB84D" fill-opacity="0.22"/></g><g id="minimized-topleft" transform="translate(0,240)"><rect x="0" y="0" width="10" height="10" fill="#000000" fill-opacity="0"/></g><g id="minimized-top" transform="translate(10,240)"><rect x="0" y="0" width="20" height="10" fill="#000000" fill-opacity="0"/></g><g id="minimized-topright" transform="translate(30,240)"><rect x="0" y="0" width="10" height="10" fill="#000000" fill-opacity="0"/></g><g id="minimized-left" transform="translate(0,250)"><rect x="0" y="0" width="10" height="20" fill="#000000" fill-opacity="0"/></g><g id="minimized-center" transform="translate(10,250)"><rect x="0" y="0" width="20" height="20" fill="#000000" fill-opacity="0"/></g><g id="minimized-right" transform="translate(30,250)"><rect x="0" y="0" width="10" height="20" fill="#000000" fill-opacity="0"/></g><g id="minimized-bottomleft" transform="translate(0,270)"><rect x="0" y="0" width="10" height="10" fill="#000000" fill-opacity="0"/></g><g id="minimized-bottom" transform="translate(10,270)"><rect x="0" y="0" width="20" height="10" fill="#000000" fill-opacity="0"/><rect x="0" y="3" width="20" height="6" fill="#FF4FD8" fill-opacity="0.11" rx="3"/><rect x="0" y="6" width="20" height="2" fill="#FF4FD8" fill-opacity="0.45" rx="1"/></g><g id="minimized-bottomright" transform="translate(30,270)"><rect x="0" y="0" width="10" height="10" fill="#000000" fill-opacity="0"/></g><g id="progress-topleft" transform="translate(0,300)"><rect x="0" y="0" width="10" height="10" fill="#000000" fill-opacity="0"/><path d="M 10,10 H 0 A 10,10 0 0 1 10,0 Z" fill="#4F7BFF" fill-opacity="0.25"/></g><g id="progress-top" transform="translate(10,300)"><rect x="0" y="0" width="20" height="10" fill="#000000" fill-opacity="0"/><rect x="0" y="0" width="20" height="10" fill="#4F7BFF" fill-opacity="0.25"/></g><g id="progress-topright" transform="translate(30,300)"><rect x="0" y="0" width="10" height="10" fill="#000000" fill-opacity="0"/><path d="M 0,10 V 0 A 10,10 0 0 1 10,10 Z" fill="#4F7BFF" fill-opacity="0.25"/></g><g id="progress-left" transform="translate(0,310)"><rect x="0" y="0" width="10" height="20" fill="#000000" fill-opacity="0"/><rect x="0" y="0" width="10" height="20" fill="#4F7BFF" fill-opacity="0.25"/></g><g id="progress-center" transform="translate(10,310)"><rect x="0" y="0" width="20" height="20" fill="#000000" fill-opacity="0"/><rect x="0" y="0" width="20" height="20" fill="#4F7BFF" fill-opacity="0.25"/></g><g id="progress-right" transform="translate(30,310)"><rect x="0" y="0" width="10" height="20" fill="#000000" fill-opacity="0"/><rect x="0" y="0" width="10" height="20" fill="#4F7BFF" fill-opacity="0.25"/></g><g id="progress-bottomleft" transform="translate(0,330)"><rect x="0" y="0" width="10" height="10" fill="#000000" fill-opacity="0"/><path d="M 10,0 V 10 A 10,10 0 0 1 0,0 Z" fill="#4F7BFF" fill-opacity="0.25"/></g><g id="progress-bottom" transform="translate(10,330)"><rect x="0" y="0" width="20" height="10" fill="#000000" fill-opacity="0"/><rect x="0" y="0" width="20" height="10" fill="#4F7BFF" fill-opacity="0.25"/></g><g id="progress-bottomright" transform="translate(30,330)"><rect x="0" y="0" width="10" height="10" fill="#000000" fill-opacity="0"/><path d="M 0,0 H 10 A 10,10 0 0 1 0,10 Z" fill="#4F7BFF" fill-opacity="0.25"/></g><rect id="normal-hint-top-margin" x="120" y="0" width="4" height="4" fill="#ff00ff"/><rect id="normal-hint-bottom-margin" x="132" y="0" width="4" height="6" fill="#ff00ff"/><rect id="normal-hint-left-margin" x="144" y="0" width="4" height="4" fill="#ff00ff"/><rect id="normal-hint-right-margin" x="156" y="0" width="4" height="4" fill="#ff00ff"/></svg>